<?xml version="1.0" encoding="UTF-8" standalone="no"?>
<!-- Created with Inkscape (http://www.inkscape.org/) -->

<svg
   xmlns:dc="http://purl.org/dc/elements/1.1/"
   xmlns:cc="http://creativecommons.org/ns#"
   xmlns:rdf="http://www.w3.org/1999/02/22-rdf-syntax-ns#"
   xmlns:svg="http://www.w3.org/2000/svg"
   xmlns="http://www.w3.org/2000/svg"
   xmlns:sodipodi="http://sodipodi.sourceforge.net/DTD/sodipodi-0.dtd"
   xmlns:inkscape="http://www.inkscape.org/namespaces/inkscape"
   width="22"
   height="22"
   id="svg2"
   version="1.1"
   inkscape:version="0.48.1 r9760"
   sodipodi:docname="dali-usb.svg">
  <defs
     id="defs4650" />
  <sodipodi:namedview
     pagecolor="#ffffff"
     bordercolor="#666666"
     borderopacity="1"
     objecttolerance="10"
     gridtolerance="10"
     guidetolerance="10"
     inkscape:pageopacity="0"
     inkscape:pageshadow="2"
     inkscape:window-width="1920"
     inkscape:window-height="1176"
     id="namedview4648"
     showgrid="true"
     showguides="false"
     inkscape:zoom="37.026682"
     inkscape:cx="9.9342374"
     inkscape:cy="12.647537"
     inkscape:window-x="0"
     inkscape:window-y="24"
     inkscape:window-maximized="1"
     inkscape:current-layer="svg2">
    <inkscape:grid
       type="xygrid"
       id="grid4652"
       empspacing="5"
       visible="true"
       enabled="true"
       snapvisiblegridlinesonly="true" />
  </sodipodi:namedview>
  <metadata
     id="metadata7">
    <rdf:RDF>
      <cc:Work
         rdf:about="">
        <dc:format>image/svg+xml</dc:format>
        <dc:type
           rdf:resource="http://purl.org/dc/dcmitype/StillImage" />
        <dc:title />
      </cc:Work>
    </rdf:RDF>
  </metadata>
  <path
     style="fill-opacity:1;opacity:0.3"
     d="m 2.0000001,4 2,4 2,0 -1,-4 z m 6,0 0,4 L 10,8 10,4 z M 12,4 l 0,4 2,0 0,-4 z m 5,0 -1,4 2,0 2,-4 z m -13.9999999,6 0,4 L 19,14 19,10 z m 1,6 -2,4 3,0 1,-4 z m 4,0 0,4 L 10,20 10,16 z M 12,16 l 0,4 2,0 0,-4 z m 4,0 1,4 3,0 -2,-4 z"
     id="rect3753-5"
     inkscape:connector-curvature="0"
     sodipodi:nodetypes="ccccccccccccccccccccccccccccccccccccccccccccc" />
  <path
     style="fill:#dfdbd2;fill-opacity:1"
     d="M 2,3 4,7 6,7 5,3 z m 6,0 0,4 2,0 0,-4 z m 4,0 0,4 2,0 0,-4 z m 5,0 -1,4 2,0 2,-4 z m -14,6 0,4 16,0 0,-4 z m 1,6 -2,4 3,0 1,-4 z m 4,0 0,4 2,0 0,-4 z m 4,0 0,4 2,0 0,-4 z m 4,0 1,4 3,0 -2,-4 z"
     id="rect3753"
     inkscape:connector-curvature="0"
     sodipodi:nodetypes="ccccccccccccccccccccccccccccccccccccccccccccc" />
</svg>
