<?xml version="1.0" encoding="UTF-8" standalone="no"?>
<!-- Created with Inkscape (http://www.inkscape.org/) -->

<svg
   xmlns:dc="http://purl.org/dc/elements/1.1/"
   xmlns:cc="http://creativecommons.org/ns#"
   xmlns:rdf="http://www.w3.org/1999/02/22-rdf-syntax-ns#"
   xmlns:svg="http://www.w3.org/2000/svg"
   xmlns="http://www.w3.org/2000/svg"
   xmlns:sodipodi="http://sodipodi.sourceforge.net/DTD/sodipodi-0.dtd"
   xmlns:inkscape="http://www.inkscape.org/namespaces/inkscape"
   width="22"
   height="22"
   id="svg2"
   version="1.1"
   inkscape:version="0.48.2 r9819"
   sodipodi:docname="dali-usb.svg">
  <sodipodi:namedview
     pagecolor="#ffffff"
     bordercolor="#666666"
     borderopacity="1"
     objecttolerance="10"
     gridtolerance="10"
     guidetolerance="10"
     inkscape:pageopacity="0"
     inkscape:pageshadow="2"
     inkscape:window-width="1920"
     inkscape:window-height="1176"
     id="namedview4648"
     showgrid="true"
     showguides="false"
     inkscape:zoom="32"
     inkscape:cx="2.3731173"
     inkscape:cy="14.747318"
     inkscape:window-x="0"
     inkscape:window-y="24"
     inkscape:window-maximized="1"
     inkscape:current-layer="svg2">
    <inkscape:grid
       snapvisiblegridlinesonly="true"
       enabled="true"
       visible="true"
       empspacing="5"
       id="grid4652"
       type="xygrid" />
  </sodipodi:namedview>
  <defs
     id="defs4650" />
  <metadata
     id="metadata7">
    <rdf:RDF>
      <cc:Work
         rdf:about="">
        <dc:format>image/svg+xml</dc:format>
        <dc:type
           rdf:resource="http://purl.org/dc/dcmitype/StillImage" />
        <dc:title />
      </cc:Work>
    </rdf:RDF>
  </metadata>
  <path
     sodipodi:nodetypes="ccccccccccccccccccccccccccccccccccccccccccccc"
     inkscape:connector-curvature="0"
     id="rect3753"
     d="m 2,4 2,3.2307692 2,0 L 5,4 z m 6,0 0,3.2307692 2,0 L 10,4 z m 4,0 0,3.2307692 2,0 L 14,4 z m 5,0 -1,3.2307692 2,0 L 20,4 z m -14,5.3846154 0,3.2307696 16,0 0,-3.2307696 z M 4,14.769231 2,18 5,18 6,14.769231 z m 4,0 L 8,18 l 2,0 0,-3.230769 z m 4,0 L 12,18 l 2,0 0,-3.230769 z m 4,0 L 17,18 l 3,0 -2,-3.230769 z"
     style="fill:#dfdbd2;fill-opacity:1" />
  <path
     sodipodi:nodetypes="ccccccccccccccccccccccccccccccccccccccccccccc"
     inkscape:connector-curvature="0"
     id="rect3753-5"
     d="m 2,5 2,3.2307692 2,0 L 5,5 z m 6,0 0,3.2307692 2,0 L 10,5 z m 4,0 0,3.2307692 2,0 L 14,5 z m 5,0 -1,3.2307692 2,0 L 20,5 z m -14,5.384615 0,3.23077 16,0 0,-3.23077 z M 4,15.769231 2,19 5,19 6,15.769231 z m 4,0 L 8,19 l 2,0 0,-3.230769 z m 4,0 L 12,19 l 2,0 0,-3.230769 z m 4,0 L 17,19 l 3,0 -2,-3.230769 z"
     style="fill-opacity:1;opacity:0.3" />
  <path
     sodipodi:nodetypes="ccccccccccccccccccccccccccccccccccccccccccccc"
     inkscape:connector-curvature="0"
     id="rect3753-0"
     d="m 2,4 2,3.2307692 2,0 L 5,4 z m 6,0 0,3.2307692 2,0 L 10,4 z m 4,0 0,3.2307692 2,0 L 14,4 z m 5,0 -1,3.2307692 2,0 L 20,4 z m -14,5.3846154 0,3.2307696 16,0 0,-3.2307696 z M 4,14.769231 2,18 5,18 6,14.769231 z m 4,0 L 8,18 l 2,0 0,-3.230769 z m 4,0 L 12,18 l 2,0 0,-3.230769 z m 4,0 L 17,18 l 3,0 -2,-3.230769 z"
     style="fill:#dfdbd2;fill-opacity:1" />
</svg>
